<svg id="visual" viewBox="0 0 900 600" width="900" height="600" xmlns="http://www.w3.org/2000/svg" xmlns:xlink="http://www.w3.org/1999/xlink" version="1.1"><rect x="0" y="0" width="900" height="600" fill="#FFFFFF"></rect><defs><linearGradient id="grad1_0" x1="33.3%" y1="0%" x2="100%" y2="100%"><stop offset="20%" stop-color="#ffffff" stop-opacity="1"></stop><stop offset="80%" stop-color="#ffffff" stop-opacity="1"></stop></linearGradient></defs><defs><linearGradient id="grad2_0" x1="0%" y1="0%" x2="66.7%" y2="100%"><stop offset="20%" stop-color="#ffffff" stop-opacity="1"></stop><stop offset="80%" stop-color="#ffffff" stop-opacity="1"></stop></linearGradient></defs><g transform="translate(900, 0)"><path d="M0 459.7C-51.3 422.7 -102.5 385.8 -148.1 357.5C-193.7 329.3 -233.6 309.8 -283.5 283.5C-333.5 257.3 -393.7 224.3 -424.7 175.9C-455.8 127.5 -457.7 63.8 -459.7 0L0 0Z" fill="#463acb"></path></g><g transform="translate(0, 600)"><path d="M0 -459.7C65.3 -460 130.6 -460.3 175.9 -424.7C221.3 -389.1 246.7 -317.6 263.8 -263.8C280.8 -209.9 289.3 -173.8 320.6 -132.8C351.8 -91.8 405.8 -45.9 459.7 0L0 0Z" fill="#463acb"></path></g></svg>