<svg id="visual" viewBox="0 0 900 600" width="900" height="600" xmlns="http://www.w3.org/2000/svg" xmlns:xlink="http://www.w3.org/1999/xlink" version="1.1"><g transform="translate(390.25051683127833 229.30546572196724)"><path d="M148.4 -157.4C207.8 -161.1 282.2 -138.5 298 -95.5C313.8 -52.5 271.1 10.8 245.8 77.2C220.5 143.6 212.8 213 174.8 255.1C136.8 297.2 68.4 312.1 18.4 286.8C-31.5 261.4 -63.1 195.8 -92.9 151C-122.7 106.2 -150.7 82.1 -166.7 50.1C-182.6 18.1 -186.4 -21.8 -176.4 -58.8C-166.4 -95.7 -142.6 -129.5 -110.9 -134.9C-79.2 -140.2 -39.6 -117 2.4 -120.4C44.5 -123.7 89 -153.7 148.4 -157.4" fill="#BB004B"></path></g></svg>