<svg xmlns="http://www.w3.org/2000/svg" version="1.1" xmlns:xlink="http://www.w3.org/1999/xlink" xmlns:svgjs="http://svgjs.com/svgjs" width="1440" height="560" preserveAspectRatio="none" viewBox="0 0 1440 560"><g mask="url(&quot;#SvgjsMask1001&quot;)" fill="none"><path d="M707.02 588.85C865.11 535.32 908.59 74.13 1128.87 71.39 1349.14 68.65 1426.85 324.09 1550.71 334.59" stroke="rgba(51,121,194,0.58)" stroke-width="2"></path><path d="M791.05 638.71C953.68 590.11 999.45 133.53 1238.42 128 1477.39 122.47 1565.86 298.59 1685.79 301.6" stroke="rgba(51,121,194,0.58)" stroke-width="2"></path><path d="M751.75 647.91C816.56 647.25 796.55 585.13 1001.3 577.71 1206.05 570.29 1359.57 322.41 1500.41 314.51" stroke="rgba(51,121,194,0.58)" stroke-width="2"></path><path d="M465.91 664.07C572.8 660.03 659.01 487.93 855.73 487.69 1052.45 487.45 1050.64 557.69 1245.55 557.69 1440.46 557.69 1536.36 487.97 1635.37 487.69" stroke="rgba(51,121,194,0.58)" stroke-width="2"></path><path d="M279.13 662.19C472.71 633.86 576.52 177.97 892.18 175.77 1207.84 173.57 1345.17 358.58 1505.23 360.57" stroke="rgba(51,121,194,0.58)" stroke-width="2"></path></g><defs><mask id="SvgjsMask1001"><rect width="1440" height="560" fill="#ffffff"></rect></mask></defs></svg>