<svg xmlns="http://www.w3.org/2000/svg" version="1.1" xmlns:xlink="http://www.w3.org/1999/xlink" xmlns:svgjs="http://svgjs.com/svgjs" width="1440" height="560" preserveAspectRatio="none" viewBox="0 0 1440 560"><g mask="url(&quot;#SvgjsMask1036&quot;)" fill="none"><path d="M 0,76 C 72,91.8 216,148.4 360,155 C 504,161.6 576,107.8 720,109 C 864,110.2 936,176.8 1080,161 C 1224,145.2 1368,56.2 1440,30L1440 560L0 560z" fill="#184a7e"></path><path d="M 0,468 C 72,437.8 216,320.4 360,317 C 504,313.6 576,435.4 720,451 C 864,466.6 936,384.2 1080,395 C 1224,405.8 1368,483 1440,505L1440 560L0 560z" fill="#2264ab"></path></g><defs><mask id="SvgjsMask1036"><rect width="1440" height="560" fill="#ffffff"></rect></mask></defs></svg>